<?xml version="1.0" encoding="utf-8"?>
<!-- Generator: Adobe Illustrator 26.0.3, SVG Export Plug-In . SVG Version: 6.00 Build 0)  -->
<svg version="1.1" id="CalqueTicker_1" xmlns="http://www.w3.org/2000/svg" xmlns:xlink="http://www.w3.org/1999/xlink" x="0px" y="0px"
	 viewBox="0 0 100 100" style="enable-background:new 0 0 100 100;" xml:space="preserve">
<style type="text/css">
	.tickerst0{fill:#FFFFFF;}
	.tickerst1{fill:url(#SVGIDTICKER_1_);}
	.tickerst2{fill:url(#SVGIDTICKER_00000170998469256737315220000017238537265854013058_);}
	.tickerst3{fill:url(#SVGIDTICKER_00000043427096687651597120000012690713573158559126_);}
	.tickerst4{fill:url(#SVGIDTICKER_00000101815513852710968680000016657175167385476996_);}
</style>
<g id="CalqueTicker_2_00000101086626622578278390000015548821113377572001_">
	<g id="CalqueTicker_1-2">
		
			<image style="overflow:visible;opacity:0;enable-background:new    ;" width="510" height="510" xlink:href="B4F1CA1425BAF1B5.png"  transform="matrix(0.1996 0 0 0.1996 0 0)">
		</image>
		<circle class="tickerst0" cx="49.5" cy="49.4" r="46.5"/>
		
			<linearGradient id="SVGIDTICKER_1_" gradientUnits="userSpaceOnUse" x1="208.7308" y1="-1642.7664" x2="406.0608" y2="-1641.0664" gradientTransform="matrix(1 0 0 -1 -204.5 -1592.5)">
			<stop  offset="0" style="stop-color:#3EAFE4"/>
			<stop  offset="0.1" style="stop-color:#3A9FD1"/>
			<stop  offset="1" style="stop-color:#1A1633"/>
		</linearGradient>
		<path class="tickerst1" d="M29.5,44.3c0-0.2,0.1-0.3,0.3-0.4c0.1,0,0.2,0,0.2,0.1l12.5,8.7l2.2,1.5l2.5,1.8c0.1,0.1,0.1,0.2,0.1,0.3
			c0,0.5,0.3,1.1,0.6,1.4c0.9,0.9,2.3,0.9,3.2,0l0,0c0.4-0.4,0.7-1,0.6-1.6c0-0.6-0.2-1.2-0.6-1.7c-0.4-0.4-1-0.7-1.6-0.7
			c-0.3,0-0.5,0.1-0.8,0.2c-0.1,0.1-0.2,0.1-0.3,0l-1.6-1.1l-0.4-0.3l0,0l-1.8-1.2L31.4,42l-3.8-2.9c-0.1-0.1-0.4-0.1-0.5,0.1l0,0
			c0,0.1-0.1,0.1-0.1,0.2V42v18.7c0,0.2,0.2,0.4,0.3,0.4l0,0c0.1,0,0.1,0,0.2-0.1l1.8-1.2c0.1-0.1,0.1-0.2,0.1-0.3L29.5,44.3z"/>
		
			<linearGradient id="SVGIDTICKER_00000104697102659346183960000002075525947468525473_" gradientUnits="userSpaceOnUse" x1="209.1801" y1="-1642.2966" x2="405.2001" y2="-1640.6166" gradientTransform="matrix(1 0 0 -1 -204.5 -1592.5)">
			<stop  offset="0" style="stop-color:#3EAFE4"/>
			<stop  offset="0.1" style="stop-color:#3A9FD1"/>
			<stop  offset="1" style="stop-color:#1A1633"/>
		</linearGradient>
		<path style="fill:url(#SVGIDTICKER_00000104697102659346183960000002075525947468525473_);" d="M64,32.7l3.3,2.3
			c0.1,0.1,0.2,0.2,0.2,0.3c0,0.5,0.3,1,0.6,1.4c0.4,0.4,1,0.7,1.6,0.7s1.2-0.2,1.6-0.7c0.4-0.4,0.6-0.9,0.6-1.4l0,0l0,0
			c0-0.1,0-0.1,0-0.2c0-0.6-0.2-1.2-0.6-1.7c-0.4-0.4-1-0.7-1.6-0.7c-0.3,0-0.6,0.1-0.8,0.2c-0.1,0.1-0.3,0.1-0.4,0L51.7,21.3
			c-1.3-0.9-3.1-0.9-4.5,0L27.5,35c-0.2,0.1-0.2,0.4-0.1,0.6l0,0l0.1,0.1l4.4,3l2.2,1.5l13.4,9.2l2.1,1.4l2.6,1.9l2.2,1.5l12.9,8.9
			c0.2,0.1,0.2,0.4,0.1,0.6l0,0l-0.1,0.1L49.8,75.9c-0.1,0.1-0.3,0.1-0.5,0L33.2,64.4c-0.1-0.1-0.1-0.2-0.2-0.3
			c-0.2-1.2-1.4-2-2.6-1.8c-0.5,0.1-0.9,0.3-1.2,0.6c-0.4,0.4-0.7,1-0.7,1.6c0,0.6,0.2,1.2,0.7,1.7c0.4,0.4,1,0.7,1.6,0.7
			c0.3,0,0.5,0,0.8-0.1c0.1-0.1,0.3,0,0.4,0l15.5,10.8c1.2,0.8,2.8,0.8,4,0l20-13.9c0.2-0.1,0.2-0.4,0.1-0.6l0,0L71.5,63l-2-1.4
			l-12.6-8.7c-0.2-0.1-0.2-0.4-0.1-0.6l0,0l0.1-0.1l11.9-8.3c0.2-0.1,0.4-0.1,0.5,0.1l0,0c0,0.1,0.1,0.1,0.1,0.2V59
			c0,0.1,0.1,0.3,0.2,0.3l1.7,1.2c0.2,0.1,0.4,0.1,0.6-0.1l0,0c0-0.1,0.1-0.1,0.1-0.2V41.9l0,0v-2.6l0,0c0-0.2-0.2-0.4-0.4-0.4l0,0
			c-0.1,0-0.2,0-0.2,0.1l-3.7,2.9l0,0L54.6,51c-0.1,0.1-0.3,0.1-0.5,0l-2.5-1.7l-2.1-1.6l-13.2-9.2L34.1,37l-2.2-1.5
			c-0.2-0.1-0.2-0.4-0.1-0.6l0,0l0.1-0.1l17.4-12.1c0.1-0.1,0.3-0.1,0.5,0L64,32.7z"/>
		
			<linearGradient id="SVGIDTICKER_00000136393213885275043790000015725187851542162074_" gradientUnits="userSpaceOnUse" x1="210.7905" y1="-1629.8676" x2="399.5605" y2="-1628.2476" gradientTransform="matrix(1 0 0 -1 -204.5 -1592.5)">
			<stop  offset="0" style="stop-color:#3EAFE4"/>
			<stop  offset="0.1" style="stop-color:#3A9FD1"/>
			<stop  offset="1" style="stop-color:#1A1633"/>
		</linearGradient>
		<path style="fill:url(#SVGIDTICKER_00000136393213885275043790000015725187851542162074_);" d="M47.9,27.8l-9.5,6.9
			c-0.4,0.3-0.5,0.9-0.2,1.4c0.1,0.1,0.2,0.2,0.3,0.3l14.3,9.8c0.5,0.3,1.1,0.2,1.4-0.3c0.1-0.2,0.2-0.4,0.2-0.6l0,0
			c0-0.3-0.2-0.6-0.4-0.8l-12.2-8.2c-0.4-0.3-0.6-0.9-0.3-1.4c0.1-0.1,0.2-0.2,0.2-0.3l7.4-5.2c0.3-0.2,0.4-0.5,0.4-0.8l0,0
			c0-0.6-0.4-1-1-1C48.3,27.6,48.1,27.7,47.9,27.8z"/>
		
			<linearGradient id="SVGIDTICKER_00000153704148799533259990000011262123970374129051_" gradientUnits="userSpaceOnUse" x1="211.3799" y1="-1658.4998" x2="397.7698" y2="-1656.8998" gradientTransform="matrix(1 0 0 -1 -204.5 -1592.5)">
			<stop  offset="0" style="stop-color:#3EAFE4"/>
			<stop  offset="0.1" style="stop-color:#3A9FD1"/>
			<stop  offset="1" style="stop-color:#1A1633"/>
		</linearGradient>
		<path style="fill:url(#SVGIDTICKER_00000153704148799533259990000011262123970374129051_);" d="M54.9,58.8l6.7,4.8
			c0.4,0.3,0.5,0.9,0.2,1.4c-0.1,0.1-0.1,0.2-0.2,0.2L51,72.4c-0.5,0.3-1.1,0.2-1.4-0.3c-0.1-0.2-0.2-0.3-0.2-0.5l0,0
			c0-0.3,0.2-0.6,0.4-0.8l8.3-5.6c0.4-0.3,0.6-0.9,0.2-1.4c-0.1-0.1-0.1-0.2-0.2-0.2l-4.5-3.2c-0.4-0.3-0.5-0.9-0.2-1.4
			c0.1-0.1,0.1-0.2,0.2-0.2l0,0C54.1,58.6,54.5,58.6,54.9,58.8z"/>
	</g>
</g>
</svg>
