<?xml version="1.0" encoding="utf-8"?>
<!-- Generator: Adobe Illustrator 24.1.2, SVG Export Plug-In . SVG Version: 6.00 Build 0)  -->
<svg version="1.1" id="Calque_1" xmlns="http://www.w3.org/2000/svg" xmlns:xlink="http://www.w3.org/1999/xlink" x="0px" y="0px"
	 viewBox="0 0 600 200" style="enable-background:new 0 0 600 200;" xml:space="preserve">
<style type="text/css">
	.headerst0{display:none;fill:#1A1633;}
	.headerst1{fill:url(#SVGIDHEADER_1_);}
	.headerst2{fill:#FFFFFF;}
	.headerst3{fill:url(#SVGIDHEADER_2_);}
	.headerst4{fill:url(#SVGIDHEADER_3_);}
	.headerst5{fill:url(#SVGIDHEADER_4_);}
	.headerst6{fill:url(#SVGIDHEADER_5_);}
	.headerst7{fill:url(#SVGIDHEADER_6_);}
</style>
<rect x="-340.42" y="-79.94" class="headerst0" width="1280" height="360"/>
<linearGradient id="SVGIDHEADER_1_" gradientUnits="userSpaceOnUse" x1="47.1783" y1="111.5289" x2="123.1406" y2="113.9327" gradientTransform="matrix(1 0 0 -1 0 200)">
	<stop  offset="0" style="stop-color:#3EAFE4"/>
	<stop  offset="0.1036" style="stop-color:#3A9FD1"/>
	<stop  offset="1" style="stop-color:#1A1633"/>
</linearGradient>
<path class="headerst1" d="M60.56,84.92c-0.85-0.88-1.93-1.31-3.24-1.31c-1.24,0-2.28,0.44-3.15,1.31c-0.87,0.87-1.3,1.97-1.3,3.29
	c0,1.24,0.43,2.3,1.3,3.17c0.87,0.88,1.92,1.31,3.15,1.31c1.31,0,2.39-0.44,3.24-1.31c0.85-0.87,1.27-1.93,1.27-3.17
	C61.84,86.88,61.41,85.79,60.56,84.92z"/>
<g>
	<path class="headerst2" d="M381.07,85.28c0.69-0.58,1.38-1.02,2.08-1.31c0.7-0.29,1.37-0.5,2-0.61c0.63-0.12,1.15-0.18,1.57-0.18
		s0.69,0,0.8,0h-0.17c1.98,0,3.64,0.35,4.99,1.05c1.35,0.7,2.46,1.54,3.31,2.53c0.86,0.98,1.48,2.04,1.86,3.14
		c0.38,1.11,0.61,2.09,0.69,2.94c0,0.54-0.14,1.02-0.43,1.43c-0.29,0.41-0.75,0.65-1.4,0.72c-0.53,0.08-1.05-0.04-1.54-0.35
		c-0.49-0.31-0.78-0.85-0.86-1.63c-0.04-0.27-0.11-0.56-0.23-0.88c-0.19-0.58-0.51-1.28-0.97-2.09c-0.46-0.78-1.16-1.4-2.11-1.86
		c-0.95-0.47-2.06-0.7-3.31-0.7h-0.23c-0.23,0-0.48,0.02-0.74,0.06c-0.49,0.08-1.03,0.27-1.6,0.58c-0.92,0.47-1.61,1.19-2.08,2.18
		c-0.48,0.99-0.75,2.2-0.83,3.64v0.23v0.76c0,0.35,0.03,0.76,0.09,1.22s0.2,0.95,0.43,1.45c0.23,0.51,0.56,1.01,1,1.52
		c0.44,0.5,1.02,0.95,1.74,1.34c0.34,0.19,0.98,0.46,1.91,0.79s1.95,0.71,3.05,1.14c1.1,0.43,2.19,0.9,3.25,1.43s1.9,1.1,2.51,1.71
		c0.04,0.08,0.32,0.43,0.86,1.05c0.53,0.62,1.06,1.55,1.57,2.79c0.51,1.25,0.86,2.8,1.05,4.69c0.19,1.88-0.02,4.1-0.63,6.66
		c-0.19,0.66-0.49,1.41-0.89,2.24c-0.4,0.83-1,1.63-1.8,2.39c-0.8,0.75-1.81,1.41-3.02,1.95c-1.22,0.54-2.7,0.83-4.45,0.87
		c-0.12,0-0.33,0-0.63,0c-0.3,0-0.69-0.01-1.14-0.03c-0.46-0.02-0.97-0.09-1.54-0.2s-1.16-0.29-1.77-0.52s-1.25-0.58-1.91-1.05
		c-0.67-0.47-1.29-1.06-1.88-1.78s-1.11-1.59-1.57-2.62c-0.46-1.03-0.78-2.24-0.97-3.64c-0.08-0.58,0.03-1.08,0.32-1.52
		c0.28-0.43,0.75-0.68,1.4-0.75c0.65-0.08,1.18,0.04,1.6,0.35s0.66,0.78,0.74,1.4c0.3,1.63,0.81,2.86,1.51,3.7
		c0.7,0.83,1.44,1.43,2.2,1.77c0.76,0.35,1.46,0.54,2.11,0.55c0.65,0.02,1.07,0.03,1.26,0.03h0.11c1.26,0,2.29-0.19,3.11-0.58
		c0.82-0.38,1.47-0.82,1.94-1.31c0.48-0.49,0.81-0.95,1-1.4c0.19-0.45,0.3-0.73,0.34-0.84c0.19-0.7,0.32-1.44,0.4-2.24
		s0.12-1.51,0.12-2.13c0-1.01-0.12-1.91-0.34-2.7c-0.23-0.8-0.49-1.46-0.8-2.01c-0.34-0.66-0.7-1.24-1.08-1.75
		c-0.46-0.5-1.13-0.99-2.03-1.45c-0.89-0.46-1.85-0.89-2.86-1.28c-1.01-0.39-1.96-0.74-2.86-1.05c-0.89-0.31-1.57-0.56-2.03-0.75
		c-1.14-0.58-2.08-1.26-2.83-2.04c-0.74-0.78-1.33-1.6-1.77-2.48c-0.44-0.87-0.74-1.73-0.91-2.59c-0.17-0.86-0.26-1.63-0.26-2.33
		v-1.4C377.88,89.97,379.06,87.22,381.07,85.28z"/>
	<path class="headerst2" d="M429.72,125.08c0.08,0.58-0.04,1.08-0.34,1.49c-0.3,0.41-0.76,0.65-1.37,0.72c-1.98,0.19-3.68,0.2-5.11,0.03
		c-1.43-0.18-2.65-0.48-3.65-0.93c-1.01-0.45-1.84-0.99-2.48-1.63c-0.65-0.64-1.2-1.31-1.66-2.01c-0.42-0.62-0.75-1.33-1-2.13
		c-0.25-0.8-0.43-1.59-0.54-2.39c-0.11-0.79-0.19-1.51-0.23-2.15s-0.06-1.1-0.06-1.37v-0.18v-10.47h-3.25
		c-0.57,0-1.06-0.18-1.46-0.55s-0.6-0.87-0.6-1.49c0-0.58,0.2-1.06,0.6-1.43s0.89-0.55,1.46-0.55h3.25V88.83
		c0-0.58,0.2-1.08,0.6-1.49c0.4-0.41,0.88-0.61,1.45-0.61c0.65,0,1.13,0.2,1.46,0.61c0.32,0.41,0.49,0.9,0.49,1.49v11.23h7.36
		c0.53,0,1.01,0.18,1.43,0.55c0.42,0.37,0.63,0.84,0.63,1.43c0,0.62-0.21,1.12-0.63,1.49c-0.42,0.36-0.9,0.55-1.43,0.55h-7.36v10.47
		c0,0.23,0.02,0.61,0.06,1.14c0.04,0.52,0.12,1.1,0.23,1.74c0.11,0.64,0.26,1.28,0.46,1.92c0.19,0.64,0.46,1.17,0.8,1.6
		c0.3,0.39,0.66,0.76,1.06,1.1c0.4,0.35,0.92,0.64,1.57,0.88c0.65,0.23,1.46,0.4,2.43,0.49c0.97,0.1,2.16,0.07,3.57-0.09
		c0.61-0.08,1.13,0.03,1.57,0.32C429.44,123.95,429.68,124.42,429.72,125.08z"/>
	<path class="headerst2" d="M456.84,100.81c0.19,0.12,0.52,0.36,1,0.73c0.47,0.37,0.95,0.92,1.43,1.66s0.9,1.66,1.28,2.77
		c0.38,1.1,0.57,2.43,0.57,3.98v15.42c0,0.62-0.21,1.1-0.63,1.45s-0.91,0.52-1.48,0.52s-1.08-0.17-1.51-0.52
		c-0.44-0.35-0.66-0.83-0.66-1.45v-0.41c-0.27,0.19-0.51,0.36-0.72,0.49c-0.21,0.14-0.35,0.24-0.43,0.32
		c-0.61,0.35-1.4,0.68-2.37,0.99s-2.03,0.49-3.17,0.55c-1.14,0.06-2.35-0.05-3.62-0.32c-1.28-0.27-2.52-0.81-3.74-1.63
		c-1.26-0.85-2.17-1.79-2.74-2.82c-0.57-1.03-0.92-2.05-1.05-3.05c-0.13-1.01-0.11-1.97,0.08-2.88c0.19-0.91,0.42-1.68,0.69-2.3
		c0.8-1.43,1.87-2.51,3.23-3.23c1.35-0.72,2.7-1.22,4.05-1.52c1.35-0.29,2.56-0.44,3.62-0.44c1.07,0,1.73,0,2,0h4.17
		c-0.04-0.89-0.16-1.62-0.37-2.18s-0.43-1.04-0.66-1.43c-0.3-0.43-0.63-0.77-0.97-1.05l-0.23-0.11c-1.03-0.66-2.1-1.04-3.22-1.14
		c-1.12-0.09-2.16-0.07-3.11,0.09c-0.95,0.15-1.75,0.35-2.4,0.58c-0.65,0.24-0.99,0.35-1.03,0.35c-0.49,0.31-1.02,0.35-1.57,0.12
		c-0.55-0.23-0.92-0.58-1.11-1.05c-0.27-0.58-0.31-1.14-0.12-1.66c0.19-0.52,0.55-0.92,1.08-1.19c0.12-0.04,0.6-0.23,1.46-0.58
		s1.94-0.61,3.25-0.79s2.76-0.18,4.34,0C453.76,99.27,455.31,99.84,456.84,100.81z M453.75,122.34c0.38-0.19,0.89-0.51,1.54-0.93
		c0.65-0.43,1.16-0.85,1.54-1.28v-6.87h-4.17h-0.23c-0.11,0-0.51-0.01-1.2-0.03s-1.48,0.03-2.37,0.14c-0.89,0.12-1.81,0.35-2.74,0.7
		s-1.68,0.89-2.26,1.63c-0.08,0.11-0.22,0.46-0.43,1.05c-0.21,0.58-0.32,1.13-0.32,1.63v0.12c0,0.7,0.21,1.34,0.63,1.92
		s0.95,1.09,1.6,1.52c0.88,0.54,1.76,0.89,2.66,1.05c0.89,0.16,1.72,0.2,2.48,0.15c0.76-0.06,1.43-0.18,2-0.35
		C453.07,122.61,453.49,122.46,453.75,122.34z"/>
	<path class="headerst2" d="M492.8,123.74c0.34,0.27,0.58,0.55,0.71,0.84c0.13,0.29,0.2,0.59,0.2,0.9c0,0.43-0.13,0.84-0.4,1.22
		c-0.3,0.43-0.76,0.67-1.37,0.73c-0.61,0.06-1.12-0.09-1.54-0.44l-14.5-12.05v10.36c0,0.54-0.21,1.02-0.63,1.43
		s-0.93,0.61-1.54,0.61c-0.53,0-1-0.2-1.4-0.61s-0.6-0.88-0.6-1.43V85.92c0-0.58,0.2-1.07,0.6-1.48s0.87-0.61,1.4-0.61
		c0.61,0,1.12,0.2,1.54,0.61s0.63,0.9,0.63,1.48v21.82l14.5-8.9c0.57-0.31,1.13-0.42,1.68-0.32c0.55,0.09,1,0.42,1.34,0.96
		c0.19,0.31,0.29,0.59,0.29,0.84s-0.02,0.47-0.06,0.67c-0.12,0.62-0.46,1.13-1.03,1.51c-2.13,1.21-4.13,2.37-5.99,3.49
		c-0.8,0.46-1.62,0.95-2.46,1.45c-0.84,0.51-1.65,1-2.43,1.48c-0.78,0.49-1.51,0.93-2.17,1.34c-0.67,0.41-1.23,0.77-1.68,1.07
		c0.46,0.35,1.02,0.79,1.68,1.31s1.4,1.11,2.2,1.78c0.8,0.66,1.63,1.34,2.48,2.04c0.85,0.7,1.68,1.4,2.48,2.09
		C488.66,120.19,490.67,121.92,492.8,123.74z"/>
	<path class="headerst2" d="M512.9,99.3c0.61,0,1.08,0.18,1.43,0.55c0.34,0.37,0.51,0.87,0.51,1.49v21.93h7.94c0.57,0,1.06,0.18,1.48,0.55
		s0.63,0.86,0.63,1.48c0,0.7-0.21,1.22-0.63,1.54c-0.42,0.33-0.91,0.49-1.48,0.49h-9.88c-0.3,0-0.59-0.06-0.85-0.17
		c-0.27-0.12-0.5-0.27-0.69-0.47c-0.34-0.35-0.52-0.87-0.52-1.57v-21.88h-6.57c-0.61,0-1.11-0.18-1.51-0.55
		c-0.4-0.36-0.6-0.84-0.6-1.43c0-0.62,0.2-1.1,0.6-1.45s0.9-0.52,1.51-0.52L512.9,99.3L512.9,99.3z"/>
	<path class="headerst2" d="M557.15,110.42c0,0.11,0.01,0.52,0.03,1.22c0.02,0.7,0.05,1.55,0.09,2.56v-0.11v11.06
		c0,0.58-0.2,1.09-0.6,1.54c-0.4,0.45-0.9,0.67-1.51,0.67c-0.57,0-1.08-0.22-1.51-0.67c-0.44-0.45-0.66-0.96-0.66-1.54v-11.06
		c0-0.43-0.01-0.81-0.03-1.16c-0.02-0.35-0.03-0.68-0.03-0.99c-0.04-0.35-0.06-0.66-0.06-0.93c-0.19-1.79-0.65-3.31-1.37-4.57
		s-1.73-2.2-3.02-2.82c-0.53-0.23-1.02-0.41-1.46-0.53c-0.44-0.11-0.83-0.19-1.17-0.23c-0.42-0.04-0.78-0.06-1.08-0.06h-0.23
		c-1.03,0-2.04,0.12-3.03,0.35c-0.99,0.23-1.87,0.62-2.63,1.16v20.84c0,0.7-0.21,1.24-0.63,1.63s-0.93,0.58-1.54,0.58
		c-0.57,0-1.08-0.19-1.51-0.58c-0.44-0.39-0.66-0.93-0.66-1.63v-24.5c0-0.58,0.22-1.08,0.66-1.51s0.94-0.64,1.51-0.64
		c0.53,0,0.99,0.12,1.37,0.37c0.38,0.26,0.63,0.59,0.74,1.02c1.29-0.66,2.46-1.06,3.51-1.19c1.05-0.14,1.7-0.2,1.97-0.2
		c0.15,0,0.44,0,0.86,0s0.89,0.04,1.43,0.11c0.53,0.08,1.12,0.2,1.74,0.38c0.63,0.18,1.25,0.42,1.86,0.73
		c0.72,0.39,1.46,0.86,2.23,1.43c0.76,0.56,1.46,1.27,2.08,2.12c0.63,0.86,1.18,1.86,1.66,3.03
		C556.62,107.45,556.96,108.83,557.15,110.42z"/>
	<path class="headerst2" d="M572.05,124.09c2.51-0.54,4.74-0.69,6.68-0.44c1.94,0.26,3.57,0.79,4.88,1.6s2.32,1.85,3.02,3.12
		c0.7,1.26,1.08,2.6,1.11,4.04c0.04,1.28-0.18,2.47-0.66,3.58s-1.15,2.06-2.03,2.88c-0.72,0.78-1.51,1.35-2.37,1.72
		c-0.85,0.37-1.65,0.64-2.4,0.81c-0.74,0.18-1.37,0.26-1.88,0.26s-0.79,0-0.83,0c-1.75,0-3.32-0.26-4.71-0.79
		c-1.39-0.52-2.54-1.29-3.45-2.3c-0.76-0.78-1.34-1.61-1.74-2.5c-0.4-0.89-0.69-1.73-0.86-2.5c-0.17-0.78-0.26-1.44-0.26-2.01
		c0-0.56,0-0.9,0-1.02c0-1.28,0.14-2.51,0.43-3.69s0.63-2.28,1.03-3.29s0.83-1.91,1.28-2.71c0.46-0.79,0.86-1.43,1.2-1.89
		c-1.25-1.08-2.24-2.39-2.97-3.9c-0.72-1.52-1.08-3.2-1.08-5.06c-0.08-1.75,0.16-3.33,0.71-4.74c0.55-1.42,1.32-2.67,2.31-3.75
		c1.79-2.02,4.24-3.09,7.36-3.2c0.84-0.04,1.71,0.01,2.63,0.14c0.91,0.14,1.81,0.5,2.68,1.08h3.54c0.57,0,1.05,0.19,1.45,0.58
		s0.6,0.85,0.6,1.4c0,0.43-0.15,0.83-0.46,1.22s-0.67,0.62-1.08,0.7c0.42,0.89,0.77,1.79,1.06,2.7c0.28,0.91,0.45,2.05,0.48,3.4
		c0,1.63-0.24,3.16-0.71,4.6c-0.48,1.43-1.25,2.72-2.31,3.84c-0.88,1.01-1.95,1.79-3.23,2.33c-1.28,0.54-2.58,0.83-3.91,0.87
		c-1.37,0.04-2.63-0.12-3.77-0.46c-0.19,0.39-0.45,0.86-0.77,1.43C572.72,122.7,572.39,123.35,572.05,124.09z M572.33,104.19
		c-0.61,0.66-1.08,1.49-1.4,2.5c-0.33,1.01-0.49,2.08-0.49,3.2c0,1.13,0.17,2.15,0.51,3.05c0.34,0.91,0.82,1.69,1.43,2.33
		s1.33,1.13,2.17,1.48c0.84,0.35,1.75,0.51,2.74,0.46c0.95,0,1.8-0.18,2.54-0.52c0.74-0.35,1.4-0.83,1.97-1.45
		c0.61-0.66,1.06-1.5,1.37-2.5c0.3-1.01,0.46-2.07,0.46-3.2c-0.08-2.41-0.7-4.2-1.88-5.41c-1.18-1.2-2.8-1.8-4.85-1.8
		c-0.91,0.04-1.76,0.2-2.54,0.49C573.58,103.11,572.91,103.57,572.33,104.19z M582.33,135.96c0.46-0.39,0.8-0.88,1.03-1.48
		c0.23-0.6,0.34-1.29,0.34-2.06c-0.04-0.2-0.08-0.41-0.12-0.64c-0.04-0.19-0.08-0.42-0.14-0.67s-0.14-0.49-0.26-0.73
		c-0.34-0.7-0.87-1.3-1.57-1.8c-0.7-0.51-1.61-0.86-2.71-1.05c-0.84-0.08-1.71-0.11-2.63-0.11c-0.76,0-1.62,0.05-2.57,0.14
		c-0.95,0.1-1.87,0.28-2.74,0.55c-0.15,0.35-0.27,0.8-0.34,1.34c-0.08,0.54-0.12,0.99-0.12,1.34v0.24c0,0.08,0.01,0.28,0.03,0.61
		s0.09,0.72,0.2,1.19c0.11,0.46,0.29,0.96,0.54,1.48c0.25,0.52,0.6,1.02,1.06,1.48c0.57,0.54,1.3,1,2.2,1.37
		c0.89,0.37,1.91,0.55,3.05,0.55h0.17c0.53,0,1.08-0.08,1.65-0.23c0.46-0.12,0.95-0.29,1.48-0.53
		C581.43,136.72,581.91,136.38,582.33,135.96z"/>
</g>
<g>
	<g>
		
			<linearGradient id="SVGIDHEADER_2_" gradientUnits="userSpaceOnUse" x1="237.5639" y1="98.514" x2="611.4317" y2="99.6609" gradientTransform="matrix(1 0 0 -1 0 200)">
			<stop  offset="0" style="stop-color:#3EAFE4"/>
			<stop  offset="0.1036" style="stop-color:#3A9FD1"/>
			<stop  offset="1" style="stop-color:#1A1633"/>
		</linearGradient>
		<path class="headerst3" d="M253.07,87.84c0-0.49,0.55-0.78,0.96-0.5l29.49,20.47l5.06,3.51l5.95,4.13c0.15,0.11,0.24,0.28,0.25,0.47
			c0.08,1.62,0.8,2.96,2.16,4.03c0.72,0.56,1.6,0.9,2.51,0.97c1.78,0.13,3.23-0.38,4.33-1.54c0.99-1.04,1.49-2.29,1.49-3.77
			c0-1.57-0.5-2.88-1.49-3.91c-0.99-1.04-2.26-1.56-3.79-1.56c-0.69,0-1.32,0.15-1.91,0.4c-0.2,0.08-0.42,0.07-0.6-0.05l-3.84-2.66
			l-0.93-0.64l0,0l-4.14-2.87l-31.05-21.55l-9.25-7.09c-0.4-0.31-0.98-0.02-0.98,0.48v6.61l0.11,43.9c0,0.49,0.55,0.78,0.96,0.5
			l4.44-3.08c0.16-0.11,0.26-0.3,0.26-0.5L253.07,87.84L253.07,87.84z"/>
		
			<linearGradient id="SVGIDHEADER_3_" gradientUnits="userSpaceOnUse" x1="237.5594" y1="99.7188" x2="611.4313" y2="100.8656" gradientTransform="matrix(1 0 0 -1 0 200)">
			<stop  offset="0" style="stop-color:#3EAFE4"/>
			<stop  offset="0.1036" style="stop-color:#3A9FD1"/>
			<stop  offset="1" style="stop-color:#1A1633"/>
		</linearGradient>
		<path class="headerst4" d="M333.28,61.18l7.74,5.37c0.23,0.16,0.39,0.4,0.41,0.68c0.12,1.21,0.59,2.27,1.46,3.15
			c1.01,1.04,2.24,1.56,3.69,1.56c1.54,0,2.8-0.52,3.79-1.56c0.87-0.91,1.29-2.01,1.4-3.26l0.09-0.06L351.8,67
			c0.01-0.14,0.07-0.25,0.07-0.4c0-1.57-0.5-2.88-1.49-3.91c-0.99-1.04-2.26-1.56-3.79-1.56c-0.68,0-1.3,0.15-1.88,0.4
			c-0.3,0.13-0.64,0.1-0.91-0.09l-38.95-27.03c-3.13-2.17-7.27-2.17-10.4,0l-45.91,31.86c-0.54,0.38-0.54,1.18,0,1.56l10.18,7.07
			l5.06,3.51l31.05,21.55l4.82,3.34l5.99,4.5l5.06,3.51l29.93,20.77c0.54,0.38,0.54,1.18,0,1.56l-40.44,28.07
			c-0.33,0.23-0.76,0.23-1.09-0.01l-37.49-26.69c-0.2-0.15-0.33-0.37-0.38-0.62c-0.17-1.03-0.58-1.95-1.32-2.73
			c-0.99-1.04-2.26-1.56-3.79-1.56c-1.45,0-2.68,0.52-3.69,1.56c-1.02,1.04-1.52,2.3-1.52,3.77c0,1.57,0.51,2.88,1.52,3.91
			c1.01,1.04,2.24,1.56,3.69,1.56c0.65,0,1.24-0.11,1.79-0.3c0.28-0.1,0.59-0.05,0.84,0.12l36.23,25.14c2.8,1.95,6.52,1.95,9.32,0
			l46.45-32.24c0.54-0.38,0.54-1.18,0-1.56l-4.65-3.23l-29.22-20.28c-0.54-0.38-0.54-1.18,0-1.56l27.73-19.25
			c0.63-0.44,1.49,0.01,1.49,0.78v33.88c0,0.31,0.15,0.6,0.41,0.78l3.88,2.69c0.63,0.44,1.49-0.01,1.49-0.78V82.74l0,0l0,0v-5.93
			l0,0c0-0.79-0.9-1.23-1.52-0.75l-8.71,6.68h0.11l-30.51,21.18c-0.32,0.23-0.76,0.23-1.08,0l-5.7-3.96l-4.82-3.68l-30.8-21.38
			l-5.06-3.51l-5.12-3.55c-0.54-0.38-0.54-1.18,0-1.56L299.1,38.2c0.32-0.23,0.76-0.23,1.08,0L333.28,61.18z"/>
	</g>
	
		<linearGradient id="SVGIDHEADER_4_" gradientUnits="userSpaceOnUse" x1="237.4704" y1="128.7319" x2="611.3424" y2="129.8788" gradientTransform="matrix(1 0 0 -1 0 200)">
		<stop  offset="0" style="stop-color:#3EAFE4"/>
		<stop  offset="0.1036" style="stop-color:#3A9FD1"/>
		<stop  offset="1" style="stop-color:#1A1633"/>
	</linearGradient>
	<path class="headerst5" d="M295.98,49.74l-22.19,15.95c-1.3,0.93-1.28,2.88,0.04,3.78l33.39,22.88c1.53,1.05,3.62-0.05,3.62-1.91v-0.03
		c0-0.77-0.38-1.49-1.02-1.92l-28.34-19.02c-1.34-0.9-1.37-2.87-0.05-3.8l17.23-12.18c0.61-0.43,0.98-1.14,0.98-1.89l0,0
		C299.64,49.73,297.51,48.64,295.98,49.74z"/>
	
		<linearGradient id="SVGIDHEADER_5_" gradientUnits="userSpaceOnUse" x1="237.6754" y1="61.9001" x2="611.5474" y2="63.047" gradientTransform="matrix(1 0 0 -1 0 200)">
		<stop  offset="0" style="stop-color:#3EAFE4"/>
		<stop  offset="0.1036" style="stop-color:#3A9FD1"/>
		<stop  offset="1" style="stop-color:#1A1633"/>
	</linearGradient>
	<path class="headerst6" d="M312.14,122.04l15.54,11.18c1.28,0.92,1.26,2.82-0.04,3.71l-24.45,16.76c-1.51,1.03-3.55-0.05-3.55-1.87l0,0
		c0-0.76,0.38-1.46,1-1.88l19.36-13c1.32-0.89,1.34-2.82,0.04-3.74l-10.56-7.46c-1.29-0.91-1.28-2.82,0.02-3.72l0.01-0.01
		C310.31,121.47,311.36,121.48,312.14,122.04z"/>
</g>
<linearGradient id="SVGIDHEADER_6_" gradientUnits="userSpaceOnUse" x1="501.4385" y1="111.3189" x2="577.4008" y2="113.7228" gradientTransform="matrix(1 0 0 -1 0 200)">
	<stop  offset="0" style="stop-color:#3EAFE4"/>
	<stop  offset="0.1036" style="stop-color:#3A9FD1"/>
	<stop  offset="1" style="stop-color:#1A1633"/>
</linearGradient>
<path class="headerst7" d="M514.82,85.13c-0.85-0.88-1.93-1.31-3.24-1.31c-1.24,0-2.28,0.44-3.15,1.31c-0.87,0.87-1.3,1.97-1.3,3.29
	c0,1.24,0.43,2.3,1.3,3.17c0.87,0.88,1.92,1.31,3.15,1.31c1.31,0,2.39-0.44,3.24-1.31c0.85-0.87,1.27-1.93,1.27-3.17
	C516.1,87.1,515.67,86.01,514.82,85.13z"/>
<g>
	<path class="headerst2" d="M32.08,85c0.22-0.43,0.57-0.75,1.04-0.96s0.97-0.28,1.5-0.2c0.62,0.08,1.12,0.33,1.5,0.76s0.57,0.87,0.57,1.34
		v39.16c0,0.58-0.25,1.08-0.74,1.49s-1.07,0.61-1.74,0.61c-0.62,0-1.17-0.2-1.64-0.61s-0.7-0.9-0.7-1.49V95.6
		c-0.71,1.36-1.4,2.67-2.07,3.93s-1.27,2.4-1.8,3.4c-0.63,1.2-1.21,2.33-1.74,3.37c-0.27,0.54-0.63,0.88-1.07,0.99
		c-0.44,0.12-0.85,0.18-1.2,0.18s-0.76-0.09-1.2-0.26c-0.45-0.18-0.78-0.47-1-0.9c-0.53-1.05-1.12-2.17-1.74-3.37
		c-0.53-1.01-1.14-2.15-1.8-3.4c-0.67-1.26-1.36-2.57-2.07-3.93v29.5c0,0.58-0.23,1.08-0.7,1.49s-1.02,0.61-1.64,0.61
		c-0.67,0-1.24-0.2-1.71-0.61s-0.7-0.9-0.7-1.49V85.93c0-0.47,0.19-0.91,0.57-1.34c0.38-0.43,0.86-0.68,1.44-0.76
		c0.54-0.08,1.04-0.01,1.5,0.2c0.47,0.21,0.81,0.54,1.04,0.96c1.07,1.98,2.1,3.9,3.08,5.76c0.85,1.59,1.73,3.28,2.64,5.07
		c0.91,1.78,1.68,3.31,2.31,4.59c0.71-1.28,1.54-2.8,2.47-4.56c0.94-1.77,1.83-3.46,2.68-5.1C30.11,88.9,31.09,86.98,32.08,85z"/>
	<path class="headerst2" d="M59.56,99.08c0.71,0,1.27,0.18,1.67,0.55c0.4,0.37,0.6,0.87,0.6,1.49v21.93h9.3c0.67,0,1.25,0.18,1.74,0.55
		s0.73,0.86,0.73,1.48c0,0.7-0.24,1.22-0.73,1.54c-0.49,0.33-1.07,0.49-1.74,0.49H59.56c-0.36,0-0.69-0.06-1-0.17
		c-0.31-0.12-0.58-0.27-0.8-0.47c-0.4-0.35-0.6-0.87-0.6-1.57v-21.88h-7.69c-0.71,0-1.3-0.18-1.77-0.55
		c-0.47-0.36-0.7-0.84-0.7-1.43c0-0.62,0.23-1.1,0.7-1.45s1.06-0.52,1.77-0.52L59.56,99.08L59.56,99.08z"/>
	<path class="headerst2" d="M106.38,83.95c0.62,0,1.18,0.2,1.67,0.61s0.74,0.88,0.74,1.43v38.99c0,0.54-0.25,1.02-0.74,1.43
		s-1.05,0.61-1.67,0.61c-0.54,0-1-0.17-1.4-0.5s-0.65-0.72-0.74-1.19c-1.52,0.7-3,1.14-4.45,1.34s-2.74,0.26-3.88,0.2
		s-2.06-0.18-2.78-0.35c-0.71-0.17-1.09-0.26-1.14-0.26l-0.2-0.11c-4.59-1.55-7.22-4.7-7.89-9.43c-0.13-0.81-0.21-1.6-0.23-2.36
		c-0.02-0.75-0.01-1.41,0.04-1.95c0.04-0.66,0.11-1.28,0.2-1.87c0.31-1.43,0.78-2.68,1.4-3.75c0.63-1.07,1.31-1.99,2.07-2.77
		s1.54-1.41,2.34-1.89c0.8-0.49,1.56-0.86,2.28-1.14c1.38-0.54,2.65-0.86,3.81-0.96c1.16-0.09,1.89-0.14,2.21-0.14
		c0.22,0,0.93,0.05,2.11,0.14c1.18,0.1,2.48,0.42,3.91,0.96v-15c0-0.54,0.23-1.02,0.7-1.43C105.21,84.16,105.75,83.95,106.38,83.95z
		 M93.74,122.41c0.09,0.04,0.48,0.13,1.17,0.26c0.69,0.14,1.54,0.2,2.54,0.18s2.08-0.16,3.24-0.44c1.16-0.27,2.27-0.8,3.34-1.57
		v-15.42c-0.49-0.43-1.07-0.75-1.74-0.96s-1.32-0.36-1.94-0.44c-0.76-0.08-1.54-0.09-2.34-0.06h-0.27c-0.36,0-0.76,0.04-1.21,0.11
		c-0.36,0.08-0.76,0.17-1.2,0.27c-0.45,0.09-0.91,0.24-1.4,0.44c-2.85,1.13-4.59,3.28-5.22,6.46c-0.05,0.23-0.09,0.48-0.13,0.76
		c-0.05,0.23-0.07,0.51-0.07,0.84c0,0.33,0,0.67,0,1.02c0,0.81,0.07,1.59,0.2,2.33C89.21,119.41,90.88,121.49,93.74,122.41z"/>
	<path class="headerst2" d="M143.23,83.95c0.62,0,1.18,0.2,1.67,0.61s0.74,0.88,0.74,1.43v38.99c0,0.54-0.25,1.02-0.74,1.43
		s-1.05,0.61-1.67,0.61c-0.54,0-1-0.17-1.4-0.5s-0.65-0.72-0.74-1.19c-1.52,0.7-3,1.14-4.45,1.34c-1.45,0.19-2.74,0.26-3.88,0.2
		c-1.14-0.06-2.06-0.18-2.78-0.35c-0.71-0.17-1.09-0.26-1.14-0.26l-0.2-0.11c-4.59-1.55-7.22-4.7-7.89-9.43
		c-0.13-0.81-0.21-1.6-0.23-2.36c-0.02-0.75-0.01-1.41,0.04-1.95c0.04-0.66,0.11-1.28,0.2-1.87c0.31-1.43,0.78-2.68,1.4-3.75
		c0.63-1.07,1.31-1.99,2.07-2.77s1.54-1.41,2.34-1.89c0.8-0.49,1.56-0.86,2.28-1.14c1.38-0.54,2.65-0.86,3.81-0.96
		c1.16-0.09,1.89-0.14,2.21-0.14c0.22,0,0.93,0.05,2.11,0.14c1.18,0.1,2.48,0.42,3.91,0.96v-15c0-0.54,0.23-1.02,0.7-1.43
		C142.06,84.16,142.6,83.95,143.23,83.95z M130.59,122.41c0.09,0.04,0.48,0.13,1.17,0.26c0.69,0.14,1.54,0.2,2.54,0.18
		s2.08-0.16,3.24-0.44c1.16-0.27,2.27-0.8,3.34-1.57v-15.42c-0.49-0.43-1.07-0.75-1.74-0.96s-1.32-0.36-1.94-0.44
		c-0.76-0.08-1.54-0.09-2.34-0.06h-0.27c-0.36,0-0.76,0.04-1.21,0.11c-0.36,0.08-0.76,0.17-1.2,0.27c-0.45,0.09-0.91,0.24-1.4,0.44
		c-2.85,1.13-4.59,3.28-5.22,6.46c-0.05,0.23-0.09,0.48-0.13,0.76c-0.05,0.23-0.07,0.51-0.07,0.84c0,0.33,0,0.67,0,1.02
		c0,0.81,0.07,1.59,0.2,2.33C126.06,119.41,127.73,121.49,130.59,122.41z"/>
	<path class="headerst2" d="M170.31,83.66c0.67,0,1.25,0.2,1.74,0.61s0.73,0.9,0.73,1.49V123h8.76c0.67,0,1.25,0.21,1.74,0.64
		s0.73,0.91,0.73,1.45c0,0.7-0.24,1.24-0.73,1.6c-0.49,0.37-1.07,0.55-1.74,0.55H170.3c-0.76,0-1.34-0.19-1.74-0.58
		c-0.22-0.19-0.38-0.43-0.47-0.7s-0.13-0.56-0.13-0.88V87.91h-7.36c-0.71,0-1.29-0.21-1.74-0.64c-0.45-0.43-0.67-0.93-0.67-1.51
		s0.22-1.08,0.67-1.49c0.45-0.41,1.03-0.61,1.74-0.61H170.31z"/>
	<path class="headerst2" d="M203.95,99.72c1.43-0.58,2.69-0.9,3.78-0.96s1.9-0.09,2.44-0.09c0.36,0,0.86,0.04,1.5,0.11
		c0.64,0.08,1.37,0.26,2.17,0.53s1.65,0.67,2.54,1.19c0.89,0.52,1.74,1.21,2.54,2.06c0.89,0.97,1.55,2.1,1.97,3.4
		s0.61,2.43,0.57,3.4c-0.04,1.28-0.19,2.27-0.44,2.96c-0.24,0.7-0.41,1.18-0.5,1.46c-0.36,0.89-1.16,1.34-2.41,1.34h-17.32v0.18
		c0,0.08-0.01,0.15-0.03,0.2c-0.02,0.06-0.01,0.13,0.03,0.2c0.36,1.63,0.98,3.02,1.87,4.16c0.89,1.14,2.12,2.01,3.68,2.59
		c0.13,0.08,0.6,0.18,1.4,0.32c0.8,0.14,1.74,0.17,2.81,0.09c1.07-0.08,2.17-0.33,3.31-0.75s2.15-1.2,3.04-2.33
		c0.36-0.5,0.86-0.8,1.5-0.87c0.64-0.08,1.28,0.06,1.9,0.41c0.54,0.31,0.84,0.75,0.9,1.31c0.07,0.56-0.08,1.1-0.44,1.6
		c-1.2,1.43-2.55,2.51-4.04,3.23c-1.5,0.72-2.99,1.18-4.48,1.4c-1.49,0.21-2.92,0.24-4.28,0.09c-1.36-0.16-2.48-0.39-3.38-0.7h-0.2
		c-2.19-0.85-4.01-2.1-5.48-3.75s-2.45-3.67-2.94-6.08c-0.18-0.89-0.29-1.71-0.33-2.47c-0.05-0.76-0.07-1.43-0.07-2.01
		c0-0.7,0.02-1.34,0.07-1.92c0.22-1.47,0.63-2.78,1.24-3.93c0.6-1.14,1.29-2.13,2.07-2.96c0.78-0.83,1.62-1.52,2.51-2.07
		C202.37,100.52,203.19,100.07,203.95,99.72z M200.67,110.89h15.65c0.13-0.39,0.2-0.89,0.2-1.51c0-0.58-0.08-1.23-0.23-1.95
		c-0.16-0.72-0.53-1.46-1.1-2.24c-0.49-0.54-1.02-0.98-1.57-1.31c-0.56-0.33-1.08-0.57-1.57-0.72c-0.54-0.16-1.09-0.25-1.67-0.29
		h-0.33c-0.45,0-0.91,0.02-1.4,0.06c-0.45,0.08-0.94,0.17-1.47,0.26c-0.54,0.09-1.07,0.26-1.61,0.49c-1.29,0.58-2.39,1.48-3.28,2.68
		s-1.43,2.6-1.61,4.19L200.67,110.89L200.67,110.89z"/>
</g>
</svg>
